PathFileType	4	(X/Y/Z)	C:/Users/beibeiliu/ov580/test_trc/User3\sequence.25_training_dense_right.trc
DataRate	CameraRate	NumFrames	NumMarkers	Units	OrigDataRate	OrigDataStartFrame	OrigNumFrames
120	120	20	19	mm	120	1	274
Frame#	Time	ThumbCMC			ThumbMCP			ThumbIP			ThumbTip			IndexMCP			IndexPIP			IndexTip			MiddleMCP			MiddlePIP			MiddleTip			RingMCP			RingPIP			RingTip			PinkyMCP			PinkyPIP			PinkyTip			BackHand1			BackHand2			BackHand3	
		X0	Y0	Z0	X1	Y1	Z1	X2	Y2	Z2	X3	Y3	Z3	X4	Y4	Z4	X5	Y5	Z5	X6	Y6	Z6	X7	Y7	Z7	X8	Y8	Z8	X9	Y9	Z9	X10	Y10	Z10	X11	Y11	Z11	X12	Y12	Z12	X13	Y13	Z13	X14	Y14	Z14	X15	Y15	Z15	X16	Y16	Z16	X17	Y17	Z17	X18	Y18	Z18	
0	0	144.782	-18.8975	25.793	122.173	-21.8558	0.553464	112.144	-27.0049	-28.0625	107.307	-33.3069	-49.056	159.648	-9.34961	-52.5813	154.506	-18.9406	-81.434	147.984	-27.4246	-101.715	187.28	-12.7388	-57.3918	182.344	-21.2795	-84.3216	183.011	-36.713	-113.333	203.014	-19.6537	-49.3957	205.379	-25.5525	-74.786	209.834	-36.2117	-100.554	221.705	-27.6289	-31.6987	232.869	-31.5558	-51.254	243.593	-36.7824	-69.1412	202.394	-5.49703	2.42973	202.313	-2.08667	33.6807	170.565	2.03688	17.1369	
1	0.00833333	142.357	-18.0446	20.9845	125.644	-22.8237	1.96279	113.644	-26.9386	-29.2014	103.656	-33.8543	-46.9357	158.941	-10.3064	-52.2904	151.794	-17.4351	-81.0082	151.067	-29.6291	-104.327	182.855	-12.3811	-56.3951	180.915	-22.8932	-87.8451	181.698	-37.1984	-115.052	200.228	-19.178	-51.5446	208.865	-26.0865	-71.1596	207.898	-35.702	-99.8964	220.22	-27.9241	-30.8515	232.821	-31.3293	-52.0974	239.451	-36.7468	-73.3911	201.325	-6.08744	2.63072	201.747	-3.25811	33.3356	169.583	3.11284	14.069	
2	0.0166667	141.006	-18.4568	26.4043	126.304	-23.0285	-0.355164	112.195	-26.9185	-28.2945	106.903	-33.1338	-47.9074	159.286	-10.5313	-52.5443	151.082	-16.5854	-77.0759	151.734	-27.9292	-101.218	183.005	-13.4177	-61.1857	180.599	-22.5569	-87.1909	181.955	-38.1126	-115.875	202.942	-19.6493	-49.7446	204.735	-25.1504	-71.2485	208.297	-36.0898	-98.2232	220.701	-26.3445	-31.8442	231.842	-31.8389	-49.5091	239.263	-35.6279	-69.3754	202.298	-5.99743	1.76754	205.041	-2.94899	30.9307	171.595	3.12329	15.8791	
3	0.025	140.28	-17.5944	23.43	123.533	-22.2873	2.0867	113.173	-26.3912	-29.6216	104.688	-33.3189	-48.9711	157.231	-9.61973	-50.8792	151.239	-18.4639	-81.0096	152.794	-29.1959	-102.62	186.955	-13.3927	-58.8904	184.475	-23.7603	-87.7683	184.013	-38.5821	-113.568	201.706	-18.3162	-51.5806	206.423	-25.4433	-75.2002	207.047	-35.9691	-98.8998	220.384	-26.4223	-30.6272	230.312	-30.969	-47.9045	241.337	-36.6249	-72.8187	199.91	-3.53957	1.57118	203.219	-4.56982	33.577	168.049	2.9687	12.1794	
4	0.0333333	139.624	-16.6468	21.9391	125.05	-22.5142	0.940193	112.589	-26.5345	-28.2243	105.926	-33.9135	-49.8062	159.101	-10.2486	-54.8017	151.261	-16.9564	-78.5859	152.958	-30.2672	-101.679	182.429	-11.8844	-56.1028	182.192	-24.2015	-87.7361	180.845	-36.9367	-112.724	200.936	-19.212	-46.7057	203.67	-25.537	-76.0473	207.584	-35.5913	-100.762	221.339	-28.1656	-28.0647	232.152	-30.9382	-52.4893	241.19	-38.2581	-73.0224	200.454	-4.87979	4.61409	206.522	-3.35885	33.4231	173.368	1.85133	16.0632	
5	0.0416667	140.47	-17.2342	20.5141	127.453	-23.1315	-0.0554597	114.443	-27.8666	-24.3966	106.871	-33.842	-46.7062	156.428	-10.1163	-53.3677	155.737	-18.7028	-80.7951	147.248	-30.4865	-104.809	185.187	-12.4028	-56.3068	185.088	-22.4391	-84.7607	180.596	-36.3583	-111.326	200.435	-18.7722	-50.4294	207.056	-24.8311	-72.8632	205.634	-34.716	-96.9139	223.765	-27.8842	-31.1972	230.065	-30.436	-49.2661	244.066	-37.1362	-73.4658	204.833	-6.46992	1.91467	203.903	-4.05902	30.2973	173.405	2.03085	11.9006	
6	0.05	142.833	-18.5137	21.7168	124.11	-22.1229	1.32767	110.383	-26.3131	-27.2106	103.091	-33.797	-46.2462	157.743	-10.4466	-53.3434	150.534	-18.1304	-80.9239	152.584	-30.7249	-103.162	182.498	-11.6681	-57.5723	182.506	-22.2481	-84.7455	181.016	-37.4405	-112.898	204.418	-19.3486	-49.9995	207.77	-25.6149	-72.7458	208.924	-35.1839	-96.6875	220.415	-27.8284	-29.1438	234.055	-32.531	-50.4129	243.849	-37.3445	-73.497	201.399	-4.55513	4.60407	201.597	-3.8137	32.5515	171.097	1.81711	12.7098	
7	0.0583333	141.714	-18.7789	26.1283	125.221	-22.4565	1.09765	112.168	-26.6554	-25.8761	103.953	-32.5029	-47.7734	156.19	-9.23119	-53.5887	154.048	-19.607	-82.0097	150.634	-31.2845	-105.462	184.716	-13.0796	-58.8094	182.975	-22.8628	-85.9421	184.191	-39.388	-116.203	205.079	-20.3588	-50.3868	208.95	-26.2785	-73.7411	206.465	-33.9818	-96.9058	220.763	-27.545	-27.6215	230.73	-30.6403	-47.5108	244.783	-34.8273	-70.1101	201.448	-3.25185	0.341562	202.708	-2.88998	34.5145	169.118	3.23184	15.8118	
8	0.0666667	145.228	-18.7373	21.2916	126.041	-22.7296	1.30503	115.188	-26.8182	-24.2729	105.054	-32.7453	-45.4533	158.919	-10.0098	-54.3647	153.591	-17.1737	-80.7077	152.932	-28.444	-101.281	185.949	-12.1347	-57.358	184.32	-23.5021	-87.6531	181.797	-35.5615	-110.793	202.399	-18.1114	-46.4668	206.15	-24.7067	-70.9822	208.851	-34.994	-99.3904	223.089	-27.2145	-28.8259	230.908	-30.7218	-50.1255	245.256	-36.2549	-66.7472	206.176	-4.10135	2.41023	206.55	-4.00172	31.7757	173.096	1.77956	16.9189	
9	0.075	142.821	-17.8593	25.8703	126.036	-23.3157	0.250845	114.325	-26.6457	-24.9149	105.453	-31.77	-47.5747	161.444	-9.19195	-54.2583	152.426	-15.9325	-77.471	151.98	-30.6281	-103.405	183.122	-10.9655	-60.2474	183.908	-22.6427	-87.6007	180.879	-34.6211	-112.071	203.728	-18.1099	-46.6273	205.464	-24.1492	-71.233	207.436	-34.4108	-97.83	225.545	-27.749	-28.5818	232.618	-30.4783	-49.1891	242.297	-32.9288	-69.3731	200.919	-5.74237	4.55788	206.492	-4.92199	30.6291	175.436	3.18507	17.6479	
10	0.0833333	146.246	-17.5254	22.3598	125.195	-21.4258	-2.16464	112.255	-26.7422	-27.3324	107.213	-32.5858	-49.5805	159.828	-7.56431	-50.9708	152.849	-17.0106	-81.552	155.425	-28.8769	-101.722	186.138	-11.7018	-59.2692	187.176	-20.6873	-84.3832	183.467	-36.0012	-112.126	205.89	-18.4583	-50.4976	207.464	-24.0688	-72.4669	208.216	-34.8572	-97.8987	226.403	-28.392	-29.1252	232.674	-30.2378	-49.6205	244.188	-33.3242	-72.8196	202	-5.18701	5.99786	205.998	-3.08513	34.3435	174.714	1.2479	17.6435	
11	0.0916667	145.151	-18.6794	26.1732	131.073	-22.7551	-0.360981	115.55	-26.5177	-31.0649	107.343	-32.5104	-52.1797	159.165	-7.62848	-53.5702	156.318	-16.4149	-81.2078	153.781	-30.9754	-103.731	184.239	-10.1214	-56.4347	185.966	-20.7024	-86.253	180.544	-35.1449	-113.255	205.71	-17.5475	-50.0806	208.615	-24.6905	-72.5199	206.757	-36.4699	-99.9766	223.3	-25.7049	-33.698	234.995	-29.786	-52.76	245.267	-34.5595	-71.7428	205.482	-5.13714	0.897989	206.27	-4.3231	32.5905	171.985	2.33753	13.4057	
12	0.1	143.502	-17.7771	24.7453	130.546	-22.8645	-1.3573	117.555	-27.7386	-26.6753	110.587	-32.9331	-49.1802	159.554	-5.37675	-55.8826	157.637	-15.288	-81.1142	151.935	-27.6847	-100.388	184.502	-9.31623	-61.4626	187.47	-22.3945	-87.9987	183.035	-37.0667	-112.545	204.542	-16.9474	-51.6102	209.582	-25.5398	-75.965	204.946	-35.0881	-100.183	226.121	-24.7839	-32.7041	232.861	-27.973	-52.3083	241.946	-32.3359	-73.3653	204.582	-2.28273	2.41353	206.441	-5.01704	31.8783	173.238	4.6204	17.4182	
13	0.108333	148.521	-17.6566	21.547	130.372	-22.3438	-2.75172	120.474	-25.5674	-29.1699	112.557	-32.3141	-49.2987	164.28	-4.98561	-52.8097	160.047	-13.6679	-81.1421	154.29	-30.3277	-104.922	190.001	-8.38723	-57.0379	187.531	-19.0718	-84.7807	183.363	-38.0585	-114.527	207.799	-16.476	-52.6772	204.191	-22.204	-74.4281	206.892	-33.9352	-97.1224	227.178	-24.964	-29.552	235.293	-27.8856	-53.8104	240.582	-29.9801	-71.626	204.902	-2.97164	5.48365	207.789	-4.36871	30.8827	173.666	5.46684	17.6822	
14	0.116667	147.045	-16.8734	21.2365	127.638	-21.1475	-1.57153	120.633	-24.4419	-30.178	115.082	-29.7776	-56.2719	162.72	-2.34532	-56.6332	160.542	-14.3133	-82.9392	153.914	-28.8775	-102.14	185.564	-6.72279	-58.9246	187.556	-17.6683	-84.1888	181.086	-36.9218	-113.157	208.463	-15.1365	-51.2029	207.144	-22.2986	-78.128	204.274	-35.4674	-101.759	225.925	-23.587	-30.5009	237.654	-25.8093	-49.8751	243.996	-28.6815	-75.3196	208.791	-3.4258	4.18836	206.585	-3.41343	33.043	175.136	4.22525	14.157	
15	0.125	146.426	-14.3243	21.2841	131.208	-19.3508	-2.5505	120.745	-21.9021	-30.128	117.765	-27.3838	-52.9209	163.264	0.261621	-55.0336	158.417	-12.2749	-82.2749	153.281	-28.1706	-101.269	187.28	-5.321	-60.397	182.725	-16.8844	-87.4288	178.09	-34.5541	-111.023	204.313	-11.4136	-51.9421	210.29	-19.5773	-73.9097	205.899	-34.8186	-100.051	227.482	-21.3204	-30.8435	237.194	-23.8399	-50.7051	244.077	-25.8554	-73.9398	211.311	-1.55238	6.18872	211.825	-3.23831	31.9172	176.686	4.91311	18.7392	
16	0.133333	150.921	-14.9739	22.8511	131.386	-16.8128	-3.24351	125.743	-18.4486	-33.3862	120.219	-23.7733	-55.7071	164.707	2.83793	-54.546	158.097	-8.65525	-79.7603	157.158	-29.484	-100.196	187.657	-0.312007	-56.066	183.553	-13.2729	-83.7265	181.651	-36.1151	-106.897	205.84	-8.86772	-46.5134	207.076	-18.734	-76.0682	202.437	-35.1049	-99.5626	228.313	-19.5171	-27.9244	236.414	-20.6579	-53.7815	244.004	-22.9809	-75.699	210.603	0.422832	8.2024	212.587	-3.42757	36.9021	179.003	5.41759	21.3698	
17	0.141667	149.187	-11.8506	22.7642	136.364	-14.7481	-5.1373	123.909	-15.853	-30.1373	121.396	-19.0459	-52.6102	168.535	6.01485	-52.8371	162.502	-6.39579	-78.4029	157.42	-27.1874	-94.5263	190.361	1.03538	-57.133	184.558	-14.2482	-84.4743	174.292	-39.6085	-102.653	205.795	-5.18986	-48.676	208.457	-19.5141	-76.42	199.012	-36.6523	-93.7169	228.118	-14.4369	-31.3156	237.832	-17.1581	-53.4183	248.128	-20.2723	-72.4256	212.877	1.93006	9.64882	212.922	-3.54474	40.2893	177.155	7.7898	23.2729	
18	0.15	148.161	-10.847	28.1088	136.904	-10.8532	-3.40082	125.14	-11.5155	-28.6518	122.571	-12.691	-53.9744	166.612	10.8309	-48.0535	162.941	-2.18601	-74.3837	158.504	-30.4967	-90.3866	187.794	4.88835	-56.0957	185.069	-12.7008	-78.3838	175.522	-48.7445	-88.9068	211.637	-3.91568	-43.9021	207.772	-15.9473	-71.452	195.297	-43.7988	-84.7412	228.74	-12.4735	-26.441	237.867	-12.6363	-52.8441	245.63	-18.1096	-70.6993	210.036	5.24401	9.90653	210.446	-3.55797	39.1831	181.461	10.0052	24.9314	
19	0.158333	150.392	-8.3374	26.4452	141.15	-7.62083	-2.44503	130.95	-7.26393	-26.7538	126.557	-7.60207	-52.8755	168.423	12.1285	-44.2067	161.933	-3.66905	-72.7277	153.16	-31.2072	-79.7635	192.779	3.22599	-54.2287	183.096	-19.2351	-74.8469	171.021	-55.324	-68.9125	210.793	-2.61859	-47.5595	203.364	-20.1278	-70.3324	188.95	-51.3882	-67.8832	227.802	-10.0999	-25.8874	238.26	-10.4934	-49.5579	241.675	-13.1911	-75.9362	211.135	7.86895	9.4523	214.232	-0.715135	38.1711	183.205	10.7128	28.3727	
